<?xml version="1.0" encoding="utf-8"?><!-- Uploaded to: SVG Repo, www.svgrepo.com, Generator: SVG Repo Mixer Tools -->
<svg fill="#000000" width="800px" height="800px" viewBox="0 0 24 24" id="youtube" data-name="Line Color" xmlns="http://www.w3.org/2000/svg" class="icon line-color"><polygon id="secondary" points="10 9 10 15 15 12 10 9" style="fill: none; stroke: rgb(44, 169, 188); stroke-linecap: round; stroke-linejoin: round; stroke-width: 2;"></polygon><path id="primary" d="M21,15.8a3,3,0,0,1-2.76,3c-1.49.11-3.56.21-6.24.21s-4.75-.1-6.24-.21A3,3,0,0,1,3,15.8V8.2a3,3,0,0,1,2.76-3C7.25,5.1,9.32,5,12,5s4.75.1,6.24.21A3,3,0,0,1,21,8.2Z" style="fill: none; stroke: rgb(0, 0, 0); stroke-linecap: round; stroke-linejoin: round; stroke-width: 2;"></path></svg>